<?xml version="1.0" encoding="UTF-8" standalone="no"?>
<!-- Created with Inkscape (http://www.inkscape.org/) -->

<svg
   version="1.1"
   id="svg1"
   width="793.70135"
   height="305.47"
   viewBox="0 0 793.70135 305.47"
   sodipodi:docname="Звездный.svg"
   inkscape:version="1.3.2 (091e20e, 2023-11-25, custom)"
   xmlns:inkscape="http://www.inkscape.org/namespaces/inkscape"
   xmlns:sodipodi="http://sodipodi.sourceforge.net/DTD/sodipodi-0.dtd"
   xmlns="http://www.w3.org/2000/svg"
   xmlns:svg="http://www.w3.org/2000/svg">
  <defs
     id="defs1">
    <clipPath
       clipPathUnits="userSpaceOnUse"
       id="clipPath2">
      <path
         d="M 0,229.103 H 595.276 V 0 H 0 Z"
         transform="translate(-154.4341,-97.663005)"
         id="path2" />
    </clipPath>
    <clipPath
       clipPathUnits="userSpaceOnUse"
       id="clipPath4">
      <path
         d="M 0,229.103 H 595.276 V 0 H 0 Z"
         transform="translate(-263.76981,-190.0361)"
         id="path4" />
    </clipPath>
    <clipPath
       clipPathUnits="userSpaceOnUse"
       id="clipPath6">
      <path
         d="M 0,229.103 H 595.276 V 0 H 0 Z"
         transform="translate(-275.90301,-147.31661)"
         id="path6" />
    </clipPath>
    <clipPath
       clipPathUnits="userSpaceOnUse"
       id="clipPath8">
      <path
         d="M 0,229.103 H 595.276 V 0 H 0 Z"
         transform="translate(-296.9515,-101.0063)"
         id="path8" />
    </clipPath>
    <clipPath
       clipPathUnits="userSpaceOnUse"
       id="clipPath10">
      <path
         d="M 0,229.103 H 595.276 V 0 H 0 Z"
         transform="translate(-327.65991,-100.88261)"
         id="path10" />
    </clipPath>
    <clipPath
       clipPathUnits="userSpaceOnUse"
       id="clipPath12">
      <path
         d="M 0,229.103 H 595.276 V 0 H 0 Z"
         transform="translate(-372.35991,-119.4561)"
         id="path12" />
    </clipPath>
    <clipPath
       clipPathUnits="userSpaceOnUse"
       id="clipPath14">
      <path
         d="M 0,229.103 H 595.276 V 0 H 0 Z"
         transform="translate(-430.18481,-117.47501)"
         id="path14" />
    </clipPath>
    <clipPath
       clipPathUnits="userSpaceOnUse"
       id="clipPath16">
      <path
         d="M 0,229.103 H 595.276 V 0 H 0 Z"
         transform="translate(-493.82931,-139.76351)"
         id="path16" />
    </clipPath>
  </defs>
  <sodipodi:namedview
     id="namedview1"
     pagecolor="#ffffff"
     bordercolor="#000000"
     borderopacity="0.25"
     inkscape:showpageshadow="2"
     inkscape:pageopacity="0.0"
     inkscape:pagecheckerboard="0"
     inkscape:deskcolor="#d1d1d1"
     inkscape:zoom="1.2454751"
     inkscape:cx="401.45323"
     inkscape:cy="157.77112"
     inkscape:window-width="1920"
     inkscape:window-height="1111"
     inkscape:window-x="-9"
     inkscape:window-y="-9"
     inkscape:window-maximized="1"
     inkscape:current-layer="layer-MC0">
    <inkscape:page
       x="0"
       y="0"
       inkscape:label="1"
       id="page1"
       width="793.70135"
       height="305.47"
       margin="45.851601 98.279999 43.173332 96.946404"
       bleed="0" />
  </sodipodi:namedview>
  <g
     id="layer-MC0"
     inkscape:groupmode="layer"
     inkscape:label="Слой 1"
     transform="translate(-3.9527904e-4,2.6784006)">
    <path
       id="path1"
       d="m 0,0 c -7.925,-1.238 -15.335,-3.012 -22.227,-5.324 -6.893,-2.311 -13.167,-4.932 -18.821,-7.863 -5.655,-2.929 -10.668,-6.087 -15.045,-9.473 -4.374,-3.384 -8.048,-6.748 -11.02,-10.092 -2.972,-3.343 -5.241,-6.582 -6.81,-9.72 -1.567,-3.136 -2.353,-5.901 -2.353,-8.296 0,-2.641 0.929,-4.767 2.786,-6.377 1.858,-1.61 4.727,-2.372 8.606,-2.291 2.56,0.084 5.677,0.929 9.349,2.539 3.674,1.609 7.615,3.798 11.825,6.562 4.21,2.767 8.522,6.027 12.94,9.783 4.415,3.757 8.605,7.822 12.568,12.196 3.962,4.377 7.553,8.978 10.772,13.807 C -4.21,-9.72 -1.734,-4.87 0,0 m 83.086,71.694 c 0,-4.21 -1.671,-7.553 -5.015,-10.029 -3.343,-2.477 -7.76,-4.396 -13.249,-5.758 -5.491,-1.362 -11.784,-2.25 -18.883,-2.662 -7.101,-0.414 -14.406,-0.62 -21.917,-0.62 -6.11,0 -12.116,0.062 -18.017,0.186 -5.902,0.124 -11.537,0.186 -16.902,0.186 -2.147,0 -3.798,-0.083 -4.953,-0.248 -1.157,-0.166 -1.733,-0.538 -1.733,-1.114 0,-1.238 0.619,-2.395 1.857,-3.467 1.238,-1.074 2.786,-2.188 4.644,-3.343 1.857,-1.157 3.879,-2.458 6.067,-3.901 2.186,-1.445 4.21,-3.179 6.068,-5.201 1.857,-2.023 3.405,-4.417 4.643,-7.181 1.238,-2.767 1.857,-6.048 1.857,-9.844 0,-3.963 -0.95,-8.544 -2.848,-13.745 5.696,0.909 11.659,1.631 17.893,2.167 6.232,0.538 12.816,0.805 19.75,0.805 8.172,0 15.147,-0.165 20.926,-0.496 5.777,-0.328 10.607,-0.576 14.488,-0.742 0.659,-0.082 1.217,-0.289 1.671,-0.619 0.453,-0.329 0.681,-0.743 0.681,-1.239 0,-0.907 -0.64,-1.795 -1.919,-2.662 -1.281,-0.867 -2.621,-1.3 -4.024,-1.3 -1.157,0 -3.51,0.042 -7.058,0.124 C 63.563,1.074 59.374,1.176 54.545,1.3 49.715,1.424 44.555,1.528 39.067,1.61 33.576,1.693 28.356,1.734 23.403,1.734 19.769,1.734 16.261,1.61 12.878,1.362 9.492,1.114 6.191,0.786 2.972,0.372 0.991,-4.251 -1.569,-9.039 -4.705,-13.992 c -3.139,-4.953 -6.646,-9.782 -10.525,-14.488 -3.882,-4.705 -8.07,-9.163 -12.569,-13.373 -4.5,-4.21 -9.163,-7.903 -13.992,-11.082 -4.829,-3.177 -9.72,-5.696 -14.673,-7.553 -4.953,-1.858 -9.782,-2.786 -14.488,-2.786 -3.548,0 -6.231,0.909 -8.048,2.724 -1.815,1.817 -2.724,4.253 -2.724,7.306 0,4.045 1.652,8.834 4.953,14.363 3.302,5.532 8.358,11.083 15.168,16.655 6.811,5.572 15.436,10.753 25.879,15.54 10.442,4.788 22.804,8.503 37.086,11.144 0.907,3.467 1.362,6.729 1.362,9.782 0,4.044 -0.662,7.553 -1.981,10.525 -1.322,2.972 -2.972,5.572 -4.953,7.801 -1.981,2.229 -4.148,4.127 -6.501,5.696 -2.353,1.567 -4.519,2.95 -6.501,4.148 -1.981,1.196 -3.633,2.291 -4.953,3.281 -1.321,0.991 -1.981,2.022 -1.981,3.096 0,1.567 0.763,2.786 2.291,3.653 1.526,0.866 3.115,1.464 4.767,1.795 0.412,0.081 1.01,0.143 1.796,0.186 0.783,0.041 1.671,0.062 2.662,0.062 8.915,-0.083 15.849,-0.145 20.802,-0.186 4.953,-0.042 8.668,-0.062 11.145,-0.062 h 4.829 1.609 c 6.768,0 13.25,0.186 19.441,0.557 6.191,0.372 11.639,1.072 16.345,2.105 4.705,1.032 8.439,2.456 11.206,4.272 2.765,1.815 4.148,4.21 4.148,7.182 0,3.632 -1.507,6.749 -4.52,9.349 -3.014,2.6 -6.872,4.808 -11.577,6.625 -4.706,1.814 -9.968,3.238 -15.788,4.272 -5.82,1.031 -11.496,1.835 -17.026,2.414 -5.531,0.577 -10.649,0.948 -15.354,1.114 -4.705,0.165 -8.296,0.248 -10.773,0.248 -3.138,0 -6.81,-0.207 -11.02,-0.619 -4.21,-0.414 -8.525,-1.033 -12.94,-1.857 -4.417,-0.826 -8.772,-1.838 -13.063,-3.034 -4.294,-1.198 -8.132,-2.581 -11.516,-4.148 -3.386,-1.569 -6.108,-3.303 -8.172,-5.201 -2.063,-1.9 -3.096,-3.962 -3.096,-6.191 0,-1.486 0.516,-2.705 1.548,-3.653 1.033,-0.95 2.043,-1.424 3.034,-1.424 0.33,-0.331 0.495,-0.743 0.495,-1.238 0,-0.662 -0.248,-0.991 -0.743,-0.991 -1.403,0.412 -2.641,0.948 -3.715,1.61 -0.907,0.577 -1.753,1.341 -2.538,2.291 -0.784,0.948 -1.176,2.124 -1.176,3.529 0,2.888 0.95,5.572 2.847,8.048 1.9,2.477 4.52,4.725 7.863,6.749 3.344,2.022 7.244,3.796 11.702,5.324 4.457,1.527 9.244,2.806 14.363,3.839 5.118,1.031 10.402,1.815 15.85,2.352 5.448,0.536 10.854,0.805 16.221,0.805 6.439,0 12.754,-0.309 18.945,-0.928 6.191,-0.619 12.073,-1.508 17.645,-2.663 5.572,-1.157 10.73,-2.538 15.478,-4.148 4.746,-1.609 8.832,-3.405 12.259,-5.386 3.424,-1.981 6.108,-4.129 8.048,-6.439 1.939,-2.312 2.91,-4.748 2.91,-7.306"
       style="fill:#231f20;fill-opacity:1;fill-rule:nonzero;stroke:none"
       transform="matrix(1.3333333,0,0,-1.3333333,205.91213,175.25333)"
       clip-path="url(#clipPath2)" />
    <path
       id="path3"
       d="m 0,0 c 0,2.477 -1.362,3.715 -4.086,3.715 -2.643,0 -5.986,-1.219 -10.03,-3.653 -4.045,-2.436 -8.317,-5.634 -12.816,-9.596 -4.5,-3.963 -9.02,-8.482 -13.559,-13.559 -4.54,-5.077 -8.648,-10.278 -12.32,-15.602 -3.674,-5.325 -6.708,-10.525 -9.101,-15.602 -2.395,-5.077 -3.715,-9.639 -3.963,-13.683 5.201,2.806 10.463,6.17 15.788,10.092 5.324,3.92 10.421,8.049 15.292,12.383 4.87,4.333 9.43,8.77 13.683,13.311 4.25,4.539 7.925,8.853 11.02,12.939 3.096,4.086 5.551,7.821 7.368,11.207 C -0.909,-4.665 0,-1.981 0,0 m 5.82,2.105 c 0,-2.476 -1.198,-5.696 -3.591,-9.658 -2.395,-3.963 -5.553,-8.277 -9.473,-12.94 -3.922,-4.665 -8.42,-9.472 -13.497,-14.425 -5.076,-4.953 -10.258,-9.68 -15.54,-14.178 -5.283,-4.501 -10.505,-8.566 -15.663,-12.197 -5.16,-3.633 -9.804,-6.439 -13.931,-8.42 0.082,-2.891 0.763,-4.912 2.044,-6.068 1.278,-1.156 2.786,-1.733 4.519,-1.733 1.65,0 3.26,0.391 4.829,1.176 1.567,0.784 2.972,1.796 4.21,3.034 1.238,1.238 2.229,2.6 2.972,4.086 0.743,1.486 1.114,2.889 1.114,4.21 0,0.66 -0.042,1.196 -0.123,1.61 -0.083,0.412 -0.124,0.824 -0.124,1.238 0,0.495 0.185,0.805 0.557,0.929 0.372,0.124 0.762,0.186 1.176,0.186 h 2.663 c 1.609,0 3.548,-0.022 5.819,-0.062 2.27,-0.043 4.725,-0.062 7.368,-0.062 h 7.429 c 0.743,0 1.115,-0.167 1.115,-0.496 0,-0.414 -0.372,-1.073 -1.115,-1.981 -0.826,-1.073 -1.733,-1.609 -2.724,-1.609 h -0.495 c -0.248,0 -0.971,0.019 -2.167,0.061 -1.198,0.041 -3.076,0.062 -5.634,0.062 h -10.773 c -0.414,-1.9 -1.28,-3.798 -2.6,-5.695 -1.322,-1.901 -2.869,-3.591 -4.643,-5.077 -1.777,-1.486 -3.653,-2.703 -5.634,-3.653 -1.982,-0.948 -3.882,-1.424 -5.696,-1.424 -2.891,0 -5.12,0.909 -6.687,2.724 -1.569,1.815 -2.353,4.168 -2.353,7.058 0,4.21 1.217,9.058 3.653,14.549 2.434,5.489 5.653,11.123 9.659,16.902 4.003,5.778 8.522,11.454 13.558,17.026 5.034,5.572 10.173,10.525 15.416,14.859 5.242,4.334 10.34,7.842 15.293,10.525 4.953,2.682 9.287,4.025 13.001,4.025 4.044,0 6.068,-1.529 6.068,-4.582"
       style="fill:#231f20;fill-opacity:1;fill-rule:nonzero;stroke:none"
       transform="matrix(1.3333333,0,0,-1.3333333,351.69307,52.0892)"
       clip-path="url(#clipPath4)" />
    <path
       id="path5"
       d="m 0,0 c 0,-0.578 -0.166,-1.219 -0.495,-1.919 -0.331,-0.703 -0.743,-1.362 -1.239,-1.981 -0.495,-0.62 -1.052,-1.136 -1.671,-1.548 -0.619,-0.414 -1.26,-0.619 -1.919,-0.619 -1.486,0 -2.229,0.659 -2.229,1.981 0,0.576 0.164,1.217 0.495,1.919 0.329,0.701 0.743,1.362 1.238,1.981 0.496,0.619 1.072,1.134 1.734,1.548 0.659,0.412 1.279,0.619 1.857,0.619 C -0.743,1.981 0,1.32 0,0 m -11.516,0 c 0,-0.578 -0.166,-1.219 -0.495,-1.919 -0.331,-0.703 -0.743,-1.362 -1.238,-1.981 -0.496,-0.62 -1.053,-1.136 -1.672,-1.548 -0.619,-0.414 -1.259,-0.619 -1.919,-0.619 -1.486,0 -2.229,0.659 -2.229,1.981 0,0.576 0.164,1.217 0.495,1.919 0.329,0.701 0.743,1.362 1.239,1.981 0.495,0.619 1.071,1.134 1.733,1.548 0.66,0.412 1.279,0.619 1.857,0.619 1.486,0 2.229,-0.661 2.229,-1.981 M 0.248,-28.48 c 0,-0.331 -0.124,-0.578 -0.372,-0.743 -3.386,-1.404 -6.686,-2.642 -9.906,-3.714 -2.724,-0.91 -5.553,-1.776 -8.482,-2.601 -2.931,-0.824 -5.386,-1.238 -7.367,-1.238 -1.653,0 -2.993,0.393 -4.025,1.176 -1.033,0.784 -1.548,1.796 -1.548,3.034 0,1.155 0.372,2.229 1.115,3.22 0.743,0.99 1.548,1.857 2.415,2.6 0.866,0.743 1.65,1.362 2.352,1.857 0.701,0.496 1.053,0.784 1.053,0.867 0,0.165 -0.31,0.288 -0.929,0.372 -0.619,0.081 -1.672,0.247 -3.158,0.495 -0.909,0.164 -1.507,0.433 -1.795,0.805 -0.29,0.371 -0.433,0.762 -0.433,1.176 0,0.577 0.185,1.093 0.557,1.548 0.371,0.453 0.638,0.762 0.805,0.929 1.65,1.071 3.591,2.145 5.819,3.219 2.229,1.072 4.437,2.022 6.625,2.848 2.186,0.824 4.189,1.486 6.006,1.981 1.814,0.495 3.095,0.743 3.838,0.743 0.824,0 1.589,-0.186 2.291,-0.557 0.7,-0.372 1.052,-1.012 1.052,-1.919 0,-0.414 -0.207,-0.848 -0.619,-1.301 -0.414,-0.454 -0.909,-0.866 -1.486,-1.238 -0.578,-0.371 -1.197,-0.681 -1.857,-0.929 -0.662,-0.247 -1.238,-0.371 -1.733,-0.371 -0.414,0 -0.805,0.081 -1.177,0.248 -0.371,0.164 -0.557,0.452 -0.557,0.866 0,0.496 0.205,1.032 0.619,1.61 0.165,0.165 0.248,0.329 0.248,0.495 0,0.165 -0.207,0.248 -0.619,0.248 -0.167,0 -0.414,-0.021 -0.743,-0.062 -0.331,-0.042 -0.703,-0.104 -1.115,-0.186 -0.662,-0.166 -1.61,-0.475 -2.848,-0.928 -1.238,-0.455 -2.476,-0.971 -3.715,-1.548 -1.238,-0.579 -2.352,-1.114 -3.343,-1.61 -0.99,-0.495 -1.609,-0.826 -1.857,-0.99 -0.331,-0.248 -0.496,-0.496 -0.496,-0.743 0,-0.414 0.248,-0.703 0.744,-0.867 0.081,0 0.371,-0.021 0.866,-0.062 0.496,-0.042 1.032,-0.083 1.61,-0.124 0.577,-0.042 1.134,-0.062 1.672,-0.062 h 1.176 c 0.908,-0.083 1.443,-0.247 1.61,-0.495 0.164,-0.248 0.247,-0.662 0.247,-1.238 0,-0.414 -0.083,-0.826 -0.247,-1.239 -0.167,-0.413 -0.702,-0.702 -1.61,-0.866 -1.734,-0.414 -3.405,-1.115 -5.015,-2.105 -1.61,-0.991 -2.414,-2.312 -2.414,-3.963 0,-1.157 0.638,-2.002 1.919,-2.538 1.279,-0.538 2.496,-0.805 3.653,-0.805 2.145,0 4.415,0.31 6.81,0.929 2.393,0.619 4.622,1.257 6.686,1.919 2.394,0.824 4.746,1.734 7.059,2.724 0.164,0 0.309,-0.104 0.433,-0.309 0.124,-0.207 0.186,-0.393 0.186,-0.558"
       style="fill:#231f20;fill-opacity:1;fill-rule:nonzero;stroke:none"
       transform="matrix(1.3333333,0,0,-1.3333333,367.87067,109.04853)"
       clip-path="url(#clipPath6)" />
    <path
       id="path7"
       d="m 0,0 c -3.138,-0.495 -6.501,-1.424 -10.092,-2.786 -3.59,-1.362 -7.181,-3.053 -10.772,-5.077 -3.591,-2.022 -7.058,-4.291 -10.402,-6.81 -3.343,-2.517 -6.293,-5.201 -8.853,-8.049 -2.558,-2.848 -4.601,-5.819 -6.129,-8.915 -1.527,-3.096 -2.291,-6.17 -2.291,-9.225 0,-1.238 0.186,-2.31 0.557,-3.219 0.371,-0.908 1.259,-1.363 2.662,-1.363 1.9,0 4.272,0.703 7.12,2.105 2.848,1.405 5.862,3.303 9.04,5.696 3.178,2.396 6.376,5.139 9.596,8.235 3.219,3.095 6.191,6.336 8.915,9.72 2.724,3.386 5.056,6.77 6.996,10.154 C -1.714,-6.149 -0.495,-2.972 0,0 m 21.174,2.724 c 0,-0.576 -0.29,-1.155 -0.867,-1.733 C 19.729,0.414 18.821,0.124 17.583,0.124 16.757,0.124 15.107,0.186 12.63,0.31 10.154,0.433 7.635,0.495 5.077,0.495 H 3.963 C 3.632,0.495 3.26,0.455 2.848,0.372 2.022,-2.765 0.577,-6.17 -1.486,-9.844 c -2.064,-3.672 -4.541,-7.306 -7.429,-10.897 -2.891,-3.59 -6.048,-7.057 -9.473,-10.401 -3.424,-3.343 -6.891,-6.272 -10.401,-8.791 -3.508,-2.517 -6.934,-4.539 -10.278,-6.068 -3.343,-1.526 -6.376,-2.291 -9.101,-2.291 -1.814,0 -3.238,0.476 -4.272,1.424 -1.031,0.951 -1.547,2.334 -1.547,4.149 0,4.045 1.528,8.317 4.581,12.815 3.055,4.501 7.101,8.835 12.135,13.002 5.036,4.169 10.835,7.946 17.397,11.33 6.563,3.386 13.312,5.986 20.246,7.801 v 0.743 c 0,1.817 -0.372,3.467 -1.115,4.953 -0.743,1.486 -1.94,2.765 -3.591,3.838 -0.661,0.165 -1.343,0.474 -2.043,0.929 -0.702,0.453 -1.052,0.886 -1.052,1.3 0.081,0.329 0.433,0.66 1.052,0.991 0.619,0.329 1.217,0.576 1.796,0.743 1.155,0.329 2.538,1.01 4.148,2.043 1.61,1.031 3.198,2.186 4.767,3.467 1.567,1.279 2.888,2.579 3.962,3.9 1.072,1.32 1.61,2.434 1.61,3.344 0,1.155 -1.074,1.733 -3.22,1.733 -0.99,0 -2.395,-0.578 -4.209,-1.733 -1.817,-1.157 -3.758,-2.498 -5.82,-4.025 -2.065,-1.528 -4.129,-3.014 -6.191,-4.457 -2.065,-1.446 -3.798,-2.457 -5.201,-3.034 -0.579,-0.248 -1.198,-0.495 -1.857,-0.743 -0.662,-0.248 -1.362,-0.538 -2.105,-0.867 -0.165,0 -0.31,0.103 -0.434,0.31 -0.124,0.205 -0.186,0.391 -0.186,0.557 0,0.329 0.124,0.536 0.372,0.619 0.66,0.248 1.279,0.515 1.857,0.805 0.577,0.288 1.115,0.515 1.61,0.681 1.238,0.495 2.848,1.424 4.829,2.786 1.981,1.362 3.941,2.744 5.882,4.148 1.938,1.403 3.672,2.682 5.2,3.839 1.527,1.155 2.496,1.857 2.91,2.105 0.577,0.329 1.424,0.743 2.539,1.238 1.114,0.495 2.372,0.743 3.776,0.743 0.991,0 1.92,-0.352 2.786,-1.052 0.867,-0.703 1.301,-1.672 1.301,-2.91 0,-1.569 -0.6,-3.077 -1.796,-4.52 C 10.752,23.258 9.328,21.917 7.677,20.679 6.025,19.44 4.396,18.345 2.786,17.397 c -1.609,-0.95 -2.869,-1.671 -3.777,-2.166 -0.247,-0.084 -0.371,-0.208 -0.371,-0.372 0,-0.331 0.267,-0.662 0.805,-0.991 0.536,-0.33 1.114,-0.826 1.734,-1.485 C 1.796,11.721 2.353,10.813 2.848,9.658 3.343,8.503 3.591,7.017 3.591,5.201 3.591,4.789 3.57,4.417 3.529,4.086 3.486,3.757 3.425,3.386 3.343,2.972 5.82,3.467 8.316,3.86 10.835,4.148 c 2.517,0.29 4.972,0.434 7.367,0.434 0.66,-0.082 1.32,-0.248 1.981,-0.496 0.66,-0.247 0.991,-0.7 0.991,-1.362"
       style="fill:#231f20;fill-opacity:1;fill-rule:nonzero;stroke:none"
       transform="matrix(1.3333333,0,0,-1.3333333,395.93533,170.7956)"
       clip-path="url(#clipPath8)" />
    <path
       id="path9"
       d="m 0,0 c -7.016,-1.32 -13.435,-3.425 -19.255,-6.315 -5.82,-2.889 -10.835,-6.211 -15.045,-9.968 -4.209,-3.755 -7.47,-7.82 -9.782,-12.197 -2.31,-4.374 -3.467,-8.708 -3.467,-13.001 0,-1.32 0.229,-2.477 0.681,-3.467 0.455,-0.991 1.26,-1.486 2.415,-1.486 0.99,0 2.436,0.723 4.334,2.167 1.9,1.445 4.107,3.364 6.624,5.758 2.519,2.395 5.222,5.181 8.111,8.358 2.89,3.179 5.82,6.481 8.791,9.906 2.972,3.426 5.882,6.893 8.73,10.401 C -5.015,-6.334 -2.395,-3.053 0,0 m 42.224,2.848 c 0,-1.072 -0.517,-1.712 -1.548,-1.919 -1.033,-0.205 -2.002,-0.31 -2.91,-0.31 -0.331,0 -1.362,0.043 -3.095,0.124 -1.734,0.083 -3.736,0.145 -6.006,0.186 -2.271,0.042 -4.664,0.104 -7.182,0.185 -2.519,0.084 -4.767,0.124 -6.748,0.124 -2.148,0 -4.231,-0.062 -6.253,-0.186 C 6.458,0.929 4.458,0.702 2.476,0.371 c -4.705,-5.943 -9.472,-11.949 -14.301,-18.016 -4.83,-6.067 -9.452,-11.516 -13.869,-16.345 -4.415,-4.829 -8.46,-8.77 -12.135,-11.825 -3.672,-3.053 -6.624,-4.582 -8.853,-4.582 -1.898,0 -3.384,0.6 -4.458,1.796 -1.072,1.198 -1.609,2.745 -1.609,4.643 0,3.963 1.197,8.318 3.591,13.064 2.395,4.748 5.943,9.37 10.649,13.868 4.705,4.5 10.525,8.587 17.459,12.259 6.934,3.674 14.899,6.46 23.898,8.358 2.476,3.302 4.477,6.048 6.005,8.234 1.527,2.186 2.291,3.487 2.291,3.901 0,0.329 -0.124,0.495 -0.371,0.495 -0.248,0 -0.579,-0.124 -0.991,-0.371 C 9.287,15.602 8.646,15.271 7.863,14.859 7.077,14.445 6.191,14.054 5.201,13.683 4.21,13.311 3.198,13.002 2.167,12.754 1.134,12.506 0.164,12.382 -0.743,12.382 c -1.157,0 -2.167,0.31 -3.034,0.929 -0.867,0.619 -1.3,1.629 -1.3,3.034 0,2.724 1.155,5.282 3.467,7.677 2.31,2.393 5.034,4.458 8.172,6.191 3.137,1.734 6.294,3.115 9.473,4.148 3.177,1.031 5.592,1.548 7.244,1.548 0.99,0 1.981,-0.248 2.972,-0.743 0.99,-0.495 1.526,-1.445 1.61,-2.848 0,-0.495 -0.291,-1.095 -0.867,-1.795 -0.579,-0.703 -1.281,-1.343 -2.105,-1.92 -0.826,-0.578 -1.631,-1.073 -2.415,-1.486 -0.785,-0.414 -1.424,-0.619 -1.919,-0.619 -0.496,0 -0.867,0.165 -1.115,0.496 -0.247,0.329 -0.371,0.7 -0.371,1.114 0,0.495 0.205,0.867 0.619,1.114 0.165,0.165 0.433,0.372 0.805,0.62 0.371,0.247 0.762,0.495 1.176,0.743 0.66,0.495 0.991,1.114 0.991,1.857 0,0.743 -0.495,1.114 -1.486,1.114 -1.734,0 -3.757,-0.516 -6.068,-1.547 C 12.794,30.975 10.587,29.697 8.482,28.17 6.377,26.642 4.581,24.97 3.095,23.155 1.61,21.338 0.867,19.646 0.867,18.078 c 0,-0.743 0.288,-1.28 0.866,-1.609 0.577,-0.331 1.196,-0.496 1.858,-0.496 1.155,0 2.393,0.248 3.715,0.743 1.319,0.495 2.619,1.093 3.9,1.796 1.279,0.7 2.517,1.464 3.715,2.29 1.195,0.825 2.207,1.568 3.033,2.229 0.329,0.329 0.66,0.496 0.991,0.496 0.412,0 0.619,-0.248 0.619,-0.743 0,-0.579 -0.207,-1.115 -0.619,-1.61 -2.064,-2.56 -4.253,-5.263 -6.563,-8.111 C 10.07,10.215 7.718,7.224 5.324,4.086 c 3.22,0.579 6.52,1.012 9.906,1.3 3.384,0.291 6.935,0.434 10.649,0.434 2.806,0 5.22,-0.041 7.244,-0.124 2.022,-0.081 3.446,-0.124 4.272,-0.124 1.733,-0.081 2.972,-0.288 3.715,-0.619 0.743,-0.329 1.114,-1.031 1.114,-2.105"
       style="fill:#231f20;fill-opacity:1;fill-rule:nonzero;stroke:none"
       transform="matrix(1.3333333,0,0,-1.3333333,436.87987,170.96053)"
       clip-path="url(#clipPath10)" />
    <path
       id="path11"
       d="M 0,0 H -0.124 C -0.207,-0.166 -0.167,-0.166 0,0 M 1.114,-3.219 C 0.205,-4.705 -0.517,-5.8 -1.053,-6.501 c -0.538,-0.702 -0.95,-1.176 -1.238,-1.424 -0.29,-0.247 -0.516,-0.35 -0.681,-0.309 -0.166,0.042 -0.371,0.062 -0.619,0.062 -0.991,0 -1.486,0.452 -1.486,1.362 0,0.743 0.267,1.567 0.805,2.476 0.536,0.908 1.176,1.815 1.919,2.724 0.743,0.908 1.506,1.753 2.291,2.539 0.783,0.783 1.381,1.424 1.795,1.919 0.082,0.081 0.124,0.205 0.124,0.371 0,0.248 -0.166,0.372 -0.495,0.372 -0.083,0 -0.517,-0.207 -1.3,-0.619 C -0.724,2.558 -1.652,2.084 -2.724,1.548 -3.798,1.01 -4.891,0.453 -6.006,-0.124 -7.12,-0.702 -8.049,-1.157 -8.792,-1.486 c -0.578,-0.248 -1.197,-0.495 -1.857,-0.743 -0.662,-0.248 -1.362,-0.538 -2.105,-0.867 -0.412,0 -0.619,0.289 -0.619,0.867 0,0.329 0.124,0.577 0.371,0.743 0.66,0.248 1.279,0.474 1.858,0.681 0.576,0.205 1.114,0.434 1.609,0.681 2.146,0.908 4.148,1.877 6.006,2.91 1.857,1.031 3.529,2.001 5.015,2.91 0.907,0.495 1.753,0.99 2.538,1.486 0.784,0.495 1.548,1.031 2.291,1.61 0.164,0.081 0.412,0.185 0.743,0.309 0.329,0.124 0.66,0.186 0.99,0.186 0.66,0 0.991,-0.455 0.991,-1.362 C 9.039,7.263 8.687,6.458 7.986,5.51 7.284,4.56 6.479,3.548 5.572,2.477 5.406,2.31 5.282,2.146 5.201,1.981 h 0.123 c 1.651,0.082 3.508,0.103 5.572,0.062 2.063,-0.042 4.127,-0.104 6.192,-0.186 0.412,0 0.824,-0.042 1.238,-0.123 0.247,0.412 0.453,0.824 0.619,1.238 0.412,0.743 0.743,1.319 0.991,1.733 1.567,2.229 2.888,3.734 3.962,4.52 1.072,0.784 1.981,1.176 2.724,1.176 0.412,0 0.66,-0.145 0.743,-0.433 0.081,-0.29 0.124,-0.517 0.124,-0.681 0,-0.331 -0.083,-0.662 -0.248,-0.991 L 26.746,7.306 C 26.498,6.975 26.084,6.396 25.508,5.572 24.929,4.746 24.372,3.839 23.836,2.848 23.298,1.857 22.803,0.846 22.35,-0.186 c -0.455,-1.033 -0.681,-1.962 -0.681,-2.786 0,-1.486 0.867,-2.229 2.6,-2.229 0.908,0 1.92,0.144 3.034,0.434 1.115,0.288 2.229,0.619 3.343,0.99 1.115,0.372 2.146,0.743 3.096,1.115 0.948,0.371 1.672,0.638 2.167,0.805 1.567,0.576 2.805,1.072 3.715,1.486 0.659,0.329 1.155,0.535 1.486,0.619 0.412,0 0.619,-0.29 0.619,-0.867 0,-0.414 -0.124,-0.662 -0.372,-0.743 l -5.572,-2.229 c -0.826,-0.331 -1.879,-0.764 -3.157,-1.3 -1.281,-0.538 -2.663,-1.052 -4.148,-1.548 -1.486,-0.495 -2.932,-0.928 -4.334,-1.3 -1.405,-0.371 -2.643,-0.557 -3.715,-0.557 -1.569,0 -2.643,0.309 -3.22,0.929 -0.578,0.619 -0.866,1.381 -0.866,2.29 0,0.908 0.124,1.858 0.371,2.848 0.248,0.908 0.577,1.734 0.991,2.477 H 16.84 c -1.486,0.081 -3.219,0.081 -5.201,0 C 9.658,0.164 7.594,0.081 5.448,0 4.705,-0.083 4.003,-0.124 3.343,-0.124 3.26,-0.29 3.136,-0.455 2.972,-0.619 2.062,-1.61 1.443,-2.477 1.114,-3.219"
       style="fill:#231f20;fill-opacity:1;fill-rule:nonzero;stroke:none"
       transform="matrix(1.3333333,0,0,-1.3333333,496.47987,146.19587)"
       clip-path="url(#clipPath12)" />
    <path
       id="path13"
       d="M 0,0 C 1.155,0.991 2.043,2.022 2.662,3.096 3.281,4.167 3.591,5.117 3.591,5.943 3.591,7.511 2.806,8.296 1.238,8.296 0.081,8.296 -0.867,7.78 -1.61,6.748 -2.353,5.715 -2.724,4.622 -2.724,3.467 -2.724,1.65 -1.817,0.495 0,0 m 1.857,-0.743 c 0.991,-0.248 2.168,-0.145 3.53,0.31 1.362,0.452 2.743,1.133 4.148,2.043 1.402,0.907 2.743,1.981 4.024,3.219 1.279,1.238 2.291,2.6 3.034,4.086 0.907,1.734 1.898,2.601 2.971,2.601 0.577,0 1.093,-0.145 1.548,-0.434 0.453,-0.29 0.681,-0.764 0.681,-1.424 0,-0.166 -0.207,-0.516 -0.619,-1.052 C 20.76,8.068 20.327,7.367 19.874,6.501 19.419,5.634 18.986,4.663 18.574,3.591 18.16,2.517 17.955,1.362 17.955,0.124 c 0,-0.91 0.329,-1.693 0.99,-2.353 0.66,-0.662 1.691,-0.991 3.096,-0.991 0.907,0 1.919,0.144 3.034,0.434 1.114,0.288 2.228,0.619 3.343,0.99 1.114,0.372 2.146,0.743 3.096,1.115 0.948,0.371 1.671,0.638 2.166,0.805 1.403,0.412 2.455,0.824 3.158,1.238 0.7,0.412 1.381,0.7 2.043,0.867 0.412,0 0.619,-0.29 0.619,-0.867 C 39.5,0.948 39.376,0.7 39.129,0.619 L 33.556,-1.61 c -0.826,-0.331 -1.878,-0.764 -3.157,-1.3 -1.281,-0.538 -2.662,-1.052 -4.148,-1.548 -1.486,-0.495 -2.931,-0.928 -4.334,-1.3 -1.404,-0.371 -2.643,-0.557 -3.715,-0.557 -1.073,0 -1.919,0.228 -2.538,0.681 -0.619,0.453 -1.114,0.969 -1.486,1.548 -0.371,0.576 -0.619,1.155 -0.743,1.733 -0.124,0.577 -0.186,1.032 -0.186,1.362 0,1.072 0.205,2.043 0.619,2.91 0.413,0.867 0.744,1.505 0.991,1.92 -1.652,-1.9 -3.653,-3.489 -6.005,-4.768 -2.353,-1.281 -5.182,-1.714 -8.482,-1.3 -2.313,-1.9 -4.232,-3.055 -5.758,-3.467 -1.529,-0.412 -3.241,-0.619 -5.139,-0.619 -2.972,0 -4.458,1.279 -4.458,3.838 0,1.486 0.743,3.446 2.229,5.882 1.486,2.434 3.22,4.849 5.201,7.244 1.981,2.393 3.92,4.477 5.82,6.253 1.898,1.774 3.219,2.743 3.962,2.91 0.081,0 0.433,0.081 1.052,0.247 0.62,0.165 1.01,0.248 1.177,0.248 0.412,0 0.762,-0.145 1.052,-0.433 0.288,-0.29 0.434,-0.6 0.434,-0.929 0,-0.166 -0.29,-0.495 -0.867,-0.991 C 4.499,17.459 3.817,16.902 3.034,16.283 2.248,15.664 1.443,14.983 0.619,14.24 -0.207,13.497 -0.867,12.835 -1.362,12.259 -4.005,9.616 -6.274,7.139 -8.172,4.829 -10.072,2.517 -11.02,0.7 -11.02,-0.619 c 0,-0.909 0.433,-1.631 1.3,-2.167 0.867,-0.538 1.712,-0.805 2.538,-0.805 1.072,0 2.001,0.143 2.786,0.433 0.784,0.289 1.713,0.887 2.786,1.796 -1.157,0.495 -1.981,1.238 -2.476,2.229 -0.495,0.99 -0.743,2.062 -0.743,3.219 0,1.981 0.681,3.734 2.043,5.263 1.362,1.526 3.322,2.29 5.882,2.29 1.155,0 1.981,-0.371 2.476,-1.114 C 6.068,9.782 6.315,8.956 6.315,8.048 6.315,6.563 6.006,5.179 5.387,3.9 4.767,2.62 3.591,1.072 1.857,-0.743"
       style="fill:#231f20;fill-opacity:1;fill-rule:nonzero;stroke:none"
       transform="matrix(1.3333333,0,0,-1.3333333,573.57973,148.83733)"
       clip-path="url(#clipPath14)" />
    <path
       id="path15"
       d="M 0,0 C 0.081,0.248 0.267,0.619 0.557,1.114 0.845,1.61 1.176,2.105 1.548,2.6 1.919,3.096 2.269,3.529 2.6,3.9 2.929,4.272 3.177,4.458 3.343,4.458 3.755,4.539 4.148,4.498 4.52,4.334 4.891,4.167 5.117,3.879 5.201,3.467 5.201,3.301 5.117,3.053 4.953,2.724 4.705,2.31 4.229,1.567 3.529,0.495 2.827,-0.579 2.517,-1.693 2.6,-2.848 2.682,-3.51 2.991,-4.046 3.529,-4.458 4.065,-4.872 4.91,-4.996 6.067,-4.829 c 1.898,0.081 3.611,0.495 5.139,1.238 1.527,0.743 2.951,1.403 4.272,1.981 0.165,0.082 0.329,0.143 0.496,0.186 0.164,0.041 0.328,0.102 0.495,0.186 0.412,0 0.619,-0.167 0.619,-0.496 0,-0.33 -0.124,-0.495 -0.372,-0.495 -2.643,-1.157 -5.16,-2.209 -7.553,-3.158 -2.395,-0.949 -4.417,-1.507 -6.067,-1.671 -0.827,0 -1.507,0.124 -2.043,0.371 -0.538,0.248 -0.95,0.558 -1.239,0.929 -0.29,0.371 -0.495,0.743 -0.619,1.114 -0.124,0.372 -0.186,0.681 -0.186,0.929 -0.083,0.66 0.02,1.362 0.31,2.105 C -0.393,-0.867 -0.166,-0.331 0,0 m 27.737,-20.926 c 0,-0.331 -0.124,-0.579 -0.372,-0.743 l -5.572,-2.229 c -0.826,-0.331 -1.878,-0.764 -3.157,-1.3 -1.281,-0.538 -2.662,-1.053 -4.148,-1.548 -1.486,-0.496 -2.932,-0.929 -4.334,-1.3 -1.405,-0.372 -2.643,-0.557 -3.715,-0.557 -1.074,0 -1.919,0.228 -2.538,0.681 -0.62,0.452 -1.115,0.969 -1.486,1.547 -0.372,0.577 -0.62,1.155 -0.743,1.734 -0.124,0.576 -0.186,1.031 -0.186,1.362 0,1.238 0.267,2.372 0.805,3.405 0.536,1.031 0.886,1.629 1.052,1.796 0.081,0.081 0,0.123 -0.247,0.123 -0.743,-0.578 -1.879,-1.404 -3.405,-2.476 -1.529,-1.074 -3.241,-2.148 -5.139,-3.22 -1.9,-1.073 -3.819,-2.023 -5.758,-2.848 -1.941,-0.826 -3.736,-1.238 -5.386,-1.238 -0.91,0 -1.693,0.412 -2.353,1.238 -0.662,0.825 -0.991,1.691 -0.991,2.601 0,0.99 0.372,2.105 1.115,3.343 0.743,1.238 1.629,2.434 2.662,3.591 1.031,1.155 2.043,2.229 3.034,3.219 0.99,0.991 1.733,1.651 2.229,1.982 0,0.081 0.04,0.123 0.123,0.123 h 0.496 c 0.412,0 0.743,-0.123 0.99,-0.371 0.081,-0.083 0.124,-0.207 0.124,-0.372 0,-0.33 -0.29,-0.804 -0.867,-1.424 -0.578,-0.619 -1.219,-1.321 -1.919,-2.104 -0.702,-0.786 -1.343,-1.632 -1.919,-2.539 -0.579,-0.909 -0.867,-1.857 -0.867,-2.848 0,-0.826 0.247,-1.548 0.743,-2.167 0.495,-0.619 1.072,-0.929 1.733,-0.929 1.568,0 3.467,0.639 5.696,1.92 2.229,1.279 4.416,2.743 6.563,4.396 2.477,1.898 5.034,4.003 7.677,6.315 0.577,0 1.053,-0.105 1.424,-0.31 0.372,-0.207 0.557,-0.64 0.557,-1.3 0,-0.248 -0.124,-0.579 -0.371,-0.991 -0.248,-0.331 -0.681,-1.197 -1.3,-2.6 -0.619,-1.405 -0.929,-2.807 -0.929,-4.21 0,-0.248 0.019,-0.6 0.062,-1.053 0.04,-0.454 0.164,-0.928 0.371,-1.424 0.205,-0.495 0.515,-0.928 0.929,-1.3 0.412,-0.371 1.031,-0.557 1.858,-0.557 0.907,0 1.919,0.143 3.033,0.433 1.115,0.289 2.229,0.62 3.343,0.991 1.115,0.372 2.146,0.743 3.096,1.114 0.948,0.372 1.672,0.639 2.167,0.805 1.65,0.66 2.889,1.155 3.715,1.486 0.495,0.248 0.99,0.453 1.486,0.619 0.164,0 0.309,-0.104 0.433,-0.309 0.124,-0.207 0.186,-0.393 0.186,-0.557"
       style="fill:#231f20;fill-opacity:1;fill-rule:nonzero;stroke:none"
       transform="matrix(1.3333333,0,0,-1.3333333,658.43907,119.11933)"
       clip-path="url(#clipPath16)" />
  </g>
</svg>
