<?xml version="1.0" encoding="UTF-8" standalone="no"?>
<!-- Created with Inkscape (http://www.inkscape.org/) -->

<svg
   version="1.1"
   id="svg1"
   width="793.70135"
   height="426.28"
   viewBox="0 0 793.70135 426.28"
   sodipodi:docname="Лого КСК.svg"
   inkscape:version="1.3.2 (091e20e, 2023-11-25, custom)"
   xmlns:inkscape="http://www.inkscape.org/namespaces/inkscape"
   xmlns:sodipodi="http://sodipodi.sourceforge.net/DTD/sodipodi-0.dtd"
   xmlns="http://www.w3.org/2000/svg"
   xmlns:svg="http://www.w3.org/2000/svg">
  <defs
     id="defs1">
    <clipPath
       clipPathUnits="userSpaceOnUse"
       id="clipPath3">
      <path
         d="M 0,319.71 H 595.276 V 0 H 0 Z"
         transform="translate(-182.93121,-224.87001)"
         id="path3" />
    </clipPath>
    <clipPath
       clipPathUnits="userSpaceOnUse"
       id="clipPath5">
      <path
         d="M 0,319.71 H 595.276 V 0 H 0 Z"
         transform="translate(-294.5128,-160.4487)"
         id="path5" />
    </clipPath>
    <clipPath
       clipPathUnits="userSpaceOnUse"
       id="clipPath7">
      <path
         d="M 0,319.71 H 595.276 V 0 H 0 Z"
         transform="translate(-182.93121,-224.87001)"
         id="path7" />
    </clipPath>
    <clipPath
       clipPathUnits="userSpaceOnUse"
       id="clipPath9">
      <path
         d="M 0,319.71 H 595.276 V 0 H 0 Z"
         transform="translate(-294.5128,-202.6045)"
         id="path9" />
    </clipPath>
    <clipPath
       clipPathUnits="userSpaceOnUse"
       id="clipPath11">
      <path
         d="M 0,319.71 H 595.276 V 0 H 0 Z"
         transform="translate(-257.3614,-138.2257)"
         id="path11" />
    </clipPath>
    <clipPath
       clipPathUnits="userSpaceOnUse"
       id="clipPath13">
      <path
         d="M 0,319.71 H 595.276 V 0 H 0 Z"
         transform="translate(-366.39831,-117.6142)"
         id="path13" />
    </clipPath>
    <clipPath
       clipPathUnits="userSpaceOnUse"
       id="clipPath15">
      <path
         d="M 0,319.71 H 595.276 V 0 H 0 Z"
         transform="translate(-366.84501,-202.11441)"
         id="path15" />
    </clipPath>
    <clipPath
       clipPathUnits="userSpaceOnUse"
       id="clipPath17">
      <path
         d="M 0,319.71 H 595.276 V 0 H 0 Z"
         transform="translate(-221.2702,-202.6045)"
         id="path17" />
    </clipPath>
    <clipPath
       clipPathUnits="userSpaceOnUse"
       id="clipPath19">
      <path
         d="M 0,319.71 H 595.276 V 0 H 0 Z"
         transform="translate(-428.67941,-228.6445)"
         id="path19" />
    </clipPath>
    <clipPath
       clipPathUnits="userSpaceOnUse"
       id="clipPath21">
      <path
         d="M 0,319.71 H 595.276 V 0 H 0 Z"
         transform="translate(-41.388301,-228.6445)"
         id="path21" />
    </clipPath>
    <clipPath
       clipPathUnits="userSpaceOnUse"
       id="clipPath23">
      <path
         d="M 0,319.71 H 595.276 V 0 H 0 Z"
         transform="translate(-56.111002,-75.745704)"
         id="path23" />
    </clipPath>
    <clipPath
       clipPathUnits="userSpaceOnUse"
       id="clipPath25">
      <path
         d="M 0,319.71 H 595.276 V 0 H 0 Z"
         transform="translate(-66.907202,-71.013902)"
         id="path25" />
    </clipPath>
    <clipPath
       clipPathUnits="userSpaceOnUse"
       id="clipPath27">
      <path
         d="M 0,319.71 H 595.276 V 0 H 0 Z"
         transform="translate(-86.498605,-73.814904)"
         id="path27" />
    </clipPath>
    <clipPath
       clipPathUnits="userSpaceOnUse"
       id="clipPath29">
      <path
         d="M 0,319.71 H 595.276 V 0 H 0 Z"
         transform="translate(-115.905,-72.166202)"
         id="path29" />
    </clipPath>
    <clipPath
       clipPathUnits="userSpaceOnUse"
       id="clipPath31">
      <path
         d="M 0,319.71 H 595.276 V 0 H 0 Z"
         transform="translate(-132.5979,-66.620799)"
         id="path31" />
    </clipPath>
    <clipPath
       clipPathUnits="userSpaceOnUse"
       id="clipPath33">
      <path
         d="M 0,319.71 H 595.276 V 0 H 0 Z"
         transform="translate(-160.97001,-69.657002)"
         id="path33" />
    </clipPath>
    <clipPath
       clipPathUnits="userSpaceOnUse"
       id="clipPath35">
      <path
         d="M 0,319.71 H 595.276 V 0 H 0 Z"
         transform="translate(-173.5339,-75.745704)"
         id="path35" />
    </clipPath>
    <clipPath
       clipPathUnits="userSpaceOnUse"
       id="clipPath38">
      <path
         d="M 0,319.71 H 595.276 V 0 H 0 Z"
         transform="translate(-182.9312,-224.87001)"
         id="path38" />
    </clipPath>
    <clipPath
       clipPathUnits="userSpaceOnUse"
       id="clipPath40">
      <path
         d="M 0,319.71 H 595.276 V 0 H 0 Z"
         transform="translate(-294.51283,-160.4487)"
         id="path40" />
    </clipPath>
    <clipPath
       clipPathUnits="userSpaceOnUse"
       id="clipPath42">
      <path
         d="M 0,319.71 H 595.276 V 0 H 0 Z"
         transform="translate(-182.9312,-224.87001)"
         id="path42" />
    </clipPath>
    <clipPath
       clipPathUnits="userSpaceOnUse"
       id="clipPath44">
      <path
         d="M 0,319.71 H 595.276 V 0 H 0 Z"
         transform="translate(-294.51283,-202.6045)"
         id="path44" />
    </clipPath>
    <clipPath
       clipPathUnits="userSpaceOnUse"
       id="clipPath46">
      <path
         d="M 0,319.71 H 595.276 V 0 H 0 Z"
         transform="translate(-257.36143,-138.2257)"
         id="path46" />
    </clipPath>
    <clipPath
       clipPathUnits="userSpaceOnUse"
       id="clipPath48">
      <path
         d="M 0,319.71 H 595.276 V 0 H 0 Z"
         transform="translate(-366.39831,-117.6142)"
         id="path48" />
    </clipPath>
    <clipPath
       clipPathUnits="userSpaceOnUse"
       id="clipPath50">
      <path
         d="M 0,319.71 H 595.276 V 0 H 0 Z"
         transform="translate(-366.84501,-202.11441)"
         id="path50" />
    </clipPath>
    <clipPath
       clipPathUnits="userSpaceOnUse"
       id="clipPath52">
      <path
         d="M 0,319.71 H 595.276 V 0 H 0 Z"
         transform="translate(-221.27023,-202.6045)"
         id="path52" />
    </clipPath>
    <clipPath
       clipPathUnits="userSpaceOnUse"
       id="clipPath54">
      <path
         d="M 0,319.71 H 595.276 V 0 H 0 Z"
         transform="translate(-428.67944,-228.6445)"
         id="path54" />
    </clipPath>
    <clipPath
       clipPathUnits="userSpaceOnUse"
       id="clipPath56">
      <path
         d="M 0,319.71 H 595.276 V 0 H 0 Z"
         transform="translate(-41.388299,-228.6445)"
         id="path56" />
    </clipPath>
    <clipPath
       clipPathUnits="userSpaceOnUse"
       id="clipPath58">
      <path
         d="M 0,319.71 H 595.276 V 0 H 0 Z"
         transform="translate(-56.111001,-75.745704)"
         id="path58" />
    </clipPath>
    <clipPath
       clipPathUnits="userSpaceOnUse"
       id="clipPath60">
      <path
         d="M 0,319.71 H 595.276 V 0 H 0 Z"
         transform="translate(-66.907199,-71.013902)"
         id="path60" />
    </clipPath>
    <clipPath
       clipPathUnits="userSpaceOnUse"
       id="clipPath62">
      <path
         d="M 0,319.71 H 595.276 V 0 H 0 Z"
         transform="translate(-86.498602,-73.814904)"
         id="path62" />
    </clipPath>
    <clipPath
       clipPathUnits="userSpaceOnUse"
       id="clipPath64">
      <path
         d="M 0,319.71 H 595.276 V 0 H 0 Z"
         transform="translate(-115.905,-72.166202)"
         id="path64" />
    </clipPath>
    <clipPath
       clipPathUnits="userSpaceOnUse"
       id="clipPath66">
      <path
         d="M 0,319.71 H 595.276 V 0 H 0 Z"
         transform="translate(-132.5979,-66.620799)"
         id="path66" />
    </clipPath>
    <clipPath
       clipPathUnits="userSpaceOnUse"
       id="clipPath68">
      <path
         d="M 0,319.71 H 595.276 V 0 H 0 Z"
         transform="translate(-160.97,-69.657002)"
         id="path68" />
    </clipPath>
    <clipPath
       clipPathUnits="userSpaceOnUse"
       id="clipPath70">
      <path
         d="M 0,319.71 H 595.276 V 0 H 0 Z"
         transform="translate(-173.53393,-75.745704)"
         id="path70" />
    </clipPath>
  </defs>
  <sodipodi:namedview
     id="namedview1"
     pagecolor="#ffffff"
     bordercolor="#000000"
     borderopacity="0.25"
     inkscape:showpageshadow="2"
     inkscape:pageopacity="0.0"
     inkscape:pagecheckerboard="0"
     inkscape:deskcolor="#d1d1d1"
     inkscape:zoom="0.7641413"
     inkscape:cx="309.49773"
     inkscape:cy="388.01724"
     inkscape:window-width="1920"
     inkscape:window-height="1111"
     inkscape:window-x="-9"
     inkscape:window-y="-9"
     inkscape:window-maximized="1"
     inkscape:current-layer="layer-MC0">
    <inkscape:page
       x="0"
       y="0"
       inkscape:label="1"
       id="page1"
       width="793.70135"
       height="426.28"
       margin="40.445068 54.522667 40.445332"
       bleed="0" />
    <inkscape:page
       x="813.70133"
       y="0"
       inkscape:label="2"
       id="page35"
       width="793.70133"
       height="426.28"
       margin="40.44506667 54.52266667 40.44533333 54.52266667" />
  </sodipodi:namedview>
  <g
     id="layer-MC0"
     inkscape:groupmode="layer"
     inkscape:label="Слой 1">
    <path
       id="path1"
       d="m 0,0 v -129.903 l 111.582,-64.633 111.836,64.803 V 0 L 111.582,64.506 Z"
       style="fill:#fdc806;fill-opacity:1;fill-rule:nonzero;stroke:none"
       transform="matrix(1.3333333,0,0,-1.3333333,243.90827,126.45333)" />
    <path
       id="path2"
       d="M 0,0 111.582,64.506 223.418,0 C 210.25,-7.585 197.082,-15.17 183.914,-22.756 159.803,-8.597 135.692,5.562 111.582,19.721 L 38.339,-22.265 Z"
       style="fill:#e0e0e1;fill-opacity:1;fill-rule:nonzero;stroke:none"
       transform="matrix(1.3333333,0,0,-1.3333333,243.90827,126.45333)"
       clip-path="url(#clipPath3)" />
    <path
       id="path4"
       d="M 0,0 111.836,64.421 V -65.312 L 0,-130.115 v 44.913 L 71.885,-42.834 37.406,-22.223 0,-42.834 Z"
       style="fill:#ffffff;fill-opacity:1;fill-rule:nonzero;stroke:none"
       transform="matrix(1.3333333,0,0,-1.3333333,392.68373,212.3484)"
       clip-path="url(#clipPath5)" />
    <path
       id="path6"
       d="m 0,0 v -129.903 l 111.582,-64.633 v 44.912 l -73.073,42.368 -0.17,84.991 z"
       style="fill:#c5c6c6;fill-opacity:1;fill-rule:nonzero;stroke:none"
       transform="matrix(1.3333333,0,0,-1.3333333,243.90827,126.45333)"
       clip-path="url(#clipPath7)" />
    <path
       id="path8"
       d="M 0,0 37.438,-20.59 0,-42.156 -37.151,-20.59 Z"
       style="fill:#e0e0e1;fill-opacity:1;fill-rule:nonzero;stroke:none"
       transform="matrix(1.3333333,0,0,-1.3333333,392.68373,156.14067)"
       clip-path="url(#clipPath9)" />
    <path
       id="path10"
       d="M 0,0 37.151,-20.611 V 22.223 L 0,43.789 Z"
       style="fill:#c5c6c6;fill-opacity:1;fill-rule:nonzero;stroke:none"
       transform="matrix(1.3333333,0,0,-1.3333333,343.14853,241.97907)"
       clip-path="url(#clipPath11)" />
    <path
       id="path12"
       d="M 0,0 -34.48,20.611 -71.885,0 -109.037,20.611 -144.958,0 -71.885,-42.368 Z"
       style="fill:#f5a80c;fill-opacity:1;fill-rule:nonzero;stroke:none"
       transform="matrix(1.3333333,0,0,-1.3333333,488.53107,269.46107)"
       clip-path="url(#clipPath13)" />
    <path
       id="path14"
       d="M 0,0 -34.894,-20.1 -72.332,0.49 v 41.986 z"
       style="fill:#ed800b;fill-opacity:1;fill-rule:nonzero;stroke:none"
       transform="matrix(1.3333333,0,0,-1.3333333,489.12667,156.79413)"
       clip-path="url(#clipPath15)" />
    <path
       id="path16"
       d="M 0,0 73.243,41.986 V 0 L 36.091,-20.59 V -64.379 L 0.17,-84.99 Z"
       style="fill:#fdc806;fill-opacity:1;fill-rule:nonzero;stroke:none"
       transform="matrix(1.3333333,0,0,-1.3333333,295.02693,156.14067)"
       clip-path="url(#clipPath17)" />
    <path
       id="path18"
       d="m 0,0 v -137.579 h 37.872 v 52.419 l 40.163,-52.419 h 47.669 L 69.214,-65.312 121.802,0 H 75.151 L 37.872,-49.026 V 0 Z"
       style="fill:#303130;fill-opacity:1;fill-rule:nonzero;stroke:none"
       transform="matrix(1.3333333,0,0,-1.3333333,571.57253,121.42067)"
       clip-path="url(#clipPath19)" />
    <path
       id="path20"
       d="m 0,0 v -137.579 h 37.872 v 52.419 l 40.163,-52.419 h 47.669 L 69.214,-65.312 121.802,0 H 75.151 L 37.872,-49.026 V 0 Z"
       style="fill:#303130;fill-opacity:1;fill-rule:nonzero;stroke:none"
       transform="matrix(1.3333333,0,0,-1.3333333,55.1844,121.42067)"
       clip-path="url(#clipPath21)" />
    <path
       id="path22"
       d="M 0,0 H -4.353 L -7.495,-4.66 -10.602,-0.081 -10.657,0 h -4.33 l 5.337,-7.823 -5.569,-8.046 h 4.376 l 3.327,4.925 3.309,-4.925 h 4.375 l -5.549,8.045 z"
       style="fill:#303130;fill-opacity:1;fill-rule:nonzero;stroke:none"
       transform="matrix(1.3333333,0,0,-1.3333333,74.814667,325.28573)"
       clip-path="url(#clipPath23)" />
    <path
       id="path24"
       d="m 0,0 c 0.746,0.879 1.678,1.307 2.851,1.307 1.113,0 2.058,-0.443 2.808,-1.319 0.757,-0.884 1.14,-1.957 1.14,-3.19 0,-1.278 -0.366,-2.363 -1.089,-3.225 -0.724,-0.865 -1.66,-1.285 -2.859,-1.285 -1.13,0 -2.082,0.44 -2.83,1.309 -0.756,0.877 -1.139,1.953 -1.139,3.201 0,1.248 0.376,2.324 1.118,3.202 M 7.034,3.704 C 5.755,4.562 4.348,4.998 2.851,4.998 0.73,4.998 -1.1,4.196 -2.59,2.615 -4.077,1.037 -4.831,-0.921 -4.831,-3.202 c 0,-2.268 0.747,-4.221 2.219,-5.805 1.476,-1.589 3.314,-2.396 5.463,-2.396 2.12,0 3.947,0.806 5.431,2.395 1.479,1.586 2.229,3.539 2.229,5.806 0,1.11 -0.227,2.264 -0.678,3.434 C 9.255,1.678 8.312,2.845 7.034,3.704"
       style="fill:#303130;fill-opacity:1;fill-rule:nonzero;stroke:none"
       transform="matrix(1.3333333,0,0,-1.3333333,89.2096,331.5948)"
       clip-path="url(#clipPath25)" />
    <path
       id="path26"
       d="m 0,0 c -0.041,-3.361 -0.145,-5.7 -0.31,-6.954 -0.162,-1.228 -0.345,-2.066 -0.545,-2.493 -0.303,-0.657 -0.77,-0.977 -1.432,-0.977 -0.063,0 -0.201,0.007 -0.497,0.042 l -0.206,0.025 v -3.552 l 0.154,-0.026 c 0.273,-0.046 0.562,-0.07 0.861,-0.07 1.139,0 2.057,0.228 2.728,0.674 0.676,0.448 1.214,1.24 1.599,2.351 0.586,1.649 0.953,4.207 1.091,7.602 l 0.074,1.618 h 4.188 v -12.178 h 3.588 V 1.931 H 0.023 Z"
       style="fill:#303130;fill-opacity:1;fill-rule:nonzero;stroke:none"
       transform="matrix(1.3333333,0,0,-1.3333333,115.33147,327.86013)"
       clip-path="url(#clipPath27)" />
    <path
       id="path28"
       d="m 0,0 v -8.709 h -5.094 c 0.694,1.93 1.086,4.628 1.165,8.025 L -3.913,0 Z M 3.589,3.58 H -7.351 V 1.535 c 0,-4.583 -0.488,-8.028 -1.451,-10.244 h -1.644 v -6.17 h 3.381 v 2.59 H 1.89 v -2.59 h 3.381 v 6.17 H 3.589 Z"
       style="fill:#303130;fill-opacity:1;fill-rule:nonzero;stroke:none"
       transform="matrix(1.3333333,0,0,-1.3333333,154.54,330.0584)"
       clip-path="url(#clipPath29)" />
    <path
       id="path30"
       d="M 0,0 V 9.125 H -3.589 V -6.744 h 2.915 L 6.131,2.342 V -6.744 H 9.72 V 9.125 H 6.763 Z"
       style="fill:#303130;fill-opacity:1;fill-rule:nonzero;stroke:none"
       transform="matrix(1.3333333,0,0,-1.3333333,176.7972,337.45227)"
       clip-path="url(#clipPath31)" />
    <path
       id="path32"
       d="M 0,0 H -6.09 V 6.089 H -9.678 V -9.78 h 3.588 v 6.2 H 0 v -6.2 H 3.589 V 6.089 H 0 Z"
       style="fill:#303130;fill-opacity:1;fill-rule:nonzero;stroke:none"
       transform="matrix(1.3333333,0,0,-1.3333333,214.62667,333.404)"
       clip-path="url(#clipPath33)" />
    <path
       id="path34"
       d="M 0,0 V -15.869 H 3.589 V -3.58 h 5.808 v 0.185 0.185 2.841 0.184 V 0 Z"
       style="fill:#303130;fill-opacity:1;fill-rule:nonzero;stroke:none"
       transform="matrix(1.3333333,0,0,-1.3333333,231.37853,325.28573)"
       clip-path="url(#clipPath35)" />
  </g>
</svg>
