<?xml version="1.0" encoding="UTF-8" standalone="no"?>
<!-- Created with Inkscape (http://www.inkscape.org/) -->

<svg
   width="78.816902mm"
   height="91.384369mm"
   viewBox="0 0 78.816902 91.384369"
   version="1.1"
   id="svg1"
   inkscape:version="1.3.2 (091e20e, 2023-11-25, custom)"
   sodipodi:docname="Лого.svg"
   xmlns:inkscape="http://www.inkscape.org/namespaces/inkscape"
   xmlns:sodipodi="http://sodipodi.sourceforge.net/DTD/sodipodi-0.dtd"
   xmlns="http://www.w3.org/2000/svg"
   xmlns:svg="http://www.w3.org/2000/svg">
  <sodipodi:namedview
     id="namedview1"
     pagecolor="#ffffff"
     bordercolor="#000000"
     borderopacity="0.25"
     inkscape:showpageshadow="2"
     inkscape:pageopacity="0.0"
     inkscape:pagecheckerboard="0"
     inkscape:deskcolor="#d1d1d1"
     inkscape:document-units="mm"
     inkscape:zoom="0.76167929"
     inkscape:cx="133.25818"
     inkscape:cy="252.73104"
     inkscape:window-width="1920"
     inkscape:window-height="1111"
     inkscape:window-x="-9"
     inkscape:window-y="-9"
     inkscape:window-maximized="1"
     inkscape:current-layer="layer1" />
  <defs
     id="defs1">
    <clipPath
       clipPathUnits="userSpaceOnUse"
       id="clipPath38">
      <path
         d="M 0,319.71 H 595.276 V 0 H 0 Z"
         transform="translate(-182.9312,-224.87001)"
         id="path38" />
    </clipPath>
    <clipPath
       clipPathUnits="userSpaceOnUse"
       id="clipPath40">
      <path
         d="M 0,319.71 H 595.276 V 0 H 0 Z"
         transform="translate(-294.51283,-160.4487)"
         id="path40" />
    </clipPath>
    <clipPath
       clipPathUnits="userSpaceOnUse"
       id="clipPath42">
      <path
         d="M 0,319.71 H 595.276 V 0 H 0 Z"
         transform="translate(-182.9312,-224.87001)"
         id="path42" />
    </clipPath>
    <clipPath
       clipPathUnits="userSpaceOnUse"
       id="clipPath44">
      <path
         d="M 0,319.71 H 595.276 V 0 H 0 Z"
         transform="translate(-294.51283,-202.6045)"
         id="path44" />
    </clipPath>
    <clipPath
       clipPathUnits="userSpaceOnUse"
       id="clipPath46">
      <path
         d="M 0,319.71 H 595.276 V 0 H 0 Z"
         transform="translate(-257.36143,-138.2257)"
         id="path46" />
    </clipPath>
    <clipPath
       clipPathUnits="userSpaceOnUse"
       id="clipPath48">
      <path
         d="M 0,319.71 H 595.276 V 0 H 0 Z"
         transform="translate(-366.39831,-117.6142)"
         id="path48" />
    </clipPath>
    <clipPath
       clipPathUnits="userSpaceOnUse"
       id="clipPath50">
      <path
         d="M 0,319.71 H 595.276 V 0 H 0 Z"
         transform="translate(-366.84501,-202.11441)"
         id="path50" />
    </clipPath>
    <clipPath
       clipPathUnits="userSpaceOnUse"
       id="clipPath52">
      <path
         d="M 0,319.71 H 595.276 V 0 H 0 Z"
         transform="translate(-221.27023,-202.6045)"
         id="path52" />
    </clipPath>
    <clipPath
       clipPathUnits="userSpaceOnUse"
       id="clipPath54">
      <path
         d="M 0,319.71 H 595.276 V 0 H 0 Z"
         transform="translate(-428.67944,-228.6445)"
         id="path54" />
    </clipPath>
    <clipPath
       clipPathUnits="userSpaceOnUse"
       id="clipPath56">
      <path
         d="M 0,319.71 H 595.276 V 0 H 0 Z"
         transform="translate(-41.388299,-228.6445)"
         id="path56" />
    </clipPath>
    <clipPath
       clipPathUnits="userSpaceOnUse"
       id="clipPath58">
      <path
         d="M 0,319.71 H 595.276 V 0 H 0 Z"
         transform="translate(-56.111001,-75.745704)"
         id="path58" />
    </clipPath>
    <clipPath
       clipPathUnits="userSpaceOnUse"
       id="clipPath60">
      <path
         d="M 0,319.71 H 595.276 V 0 H 0 Z"
         transform="translate(-66.907199,-71.013902)"
         id="path60" />
    </clipPath>
    <clipPath
       clipPathUnits="userSpaceOnUse"
       id="clipPath62">
      <path
         d="M 0,319.71 H 595.276 V 0 H 0 Z"
         transform="translate(-86.498602,-73.814904)"
         id="path62" />
    </clipPath>
    <clipPath
       clipPathUnits="userSpaceOnUse"
       id="clipPath64">
      <path
         d="M 0,319.71 H 595.276 V 0 H 0 Z"
         transform="translate(-115.905,-72.166202)"
         id="path64" />
    </clipPath>
    <clipPath
       clipPathUnits="userSpaceOnUse"
       id="clipPath66">
      <path
         d="M 0,319.71 H 595.276 V 0 H 0 Z"
         transform="translate(-132.5979,-66.620799)"
         id="path66" />
    </clipPath>
    <clipPath
       clipPathUnits="userSpaceOnUse"
       id="clipPath68">
      <path
         d="M 0,319.71 H 595.276 V 0 H 0 Z"
         transform="translate(-160.97,-69.657002)"
         id="path68" />
    </clipPath>
    <clipPath
       clipPathUnits="userSpaceOnUse"
       id="clipPath70">
      <path
         d="M 0,319.71 H 595.276 V 0 H 0 Z"
         transform="translate(-173.53393,-75.745704)"
         id="path70" />
    </clipPath>
  </defs>
  <g
     inkscape:label="Слой 1"
     inkscape:groupmode="layer"
     id="layer1"
     transform="translate(-69.95202,-81.756248)">
    <path
       id="path36"
       d="m 69.95202,104.51253 v 45.82689 l 39.36365,22.80108 39.45325,-22.86105 V 104.51253 L 109.31567,81.756248 Z"
       style="fill:#fdc806;fill-opacity:1;fill-rule:nonzero;stroke:none;stroke-width:0.352778" />
    <path
       id="path37"
       d="M 0,0 111.582,64.506 223.418,0 C 210.25,-7.585 197.082,-15.17 183.914,-22.756 159.803,-8.597 135.692,5.562 111.582,19.721 L 38.339,-22.265 Z"
       style="fill:#e0e0e1;fill-opacity:1;fill-rule:nonzero;stroke:none"
       transform="matrix(0.35277776,0,0,-0.35277776,69.95202,104.51253)"
       clip-path="url(#clipPath38)" />
    <path
       id="path39"
       d="M 0,0 111.836,64.421 V -65.312 L 0,-130.115 v 44.913 L 71.885,-42.834 37.406,-22.223 0,-42.834 Z"
       style="fill:#ffffff;fill-opacity:1;fill-rule:nonzero;stroke:none"
       transform="matrix(0.35277776,0,0,-0.35277776,109.31554,127.23894)"
       clip-path="url(#clipPath40)" />
    <path
       id="path41"
       d="m 0,0 v -129.903 l 111.582,-64.633 v 44.912 l -73.073,42.368 -0.17,84.991 z"
       style="fill:#c5c6c6;fill-opacity:1;fill-rule:nonzero;stroke:none"
       transform="matrix(0.35277776,0,0,-0.35277776,69.95202,104.51253)"
       clip-path="url(#clipPath42)" />
    <path
       id="path43"
       d="M 0,0 37.438,-20.59 0,-42.156 -37.151,-20.59 Z"
       style="fill:#e0e0e1;fill-opacity:1;fill-rule:nonzero;stroke:none"
       transform="matrix(0.35277776,0,0,-0.35277776,109.31554,112.36731)"
       clip-path="url(#clipPath44)" />
    <path
       id="path45"
       d="M 0,0 37.151,-20.611 V 22.223 L 0,43.789 Z"
       style="fill:#c5c6c6;fill-opacity:1;fill-rule:nonzero;stroke:none"
       transform="matrix(0.35277776,0,0,-0.35277776,96.209349,135.07872)"
       clip-path="url(#clipPath46)" />
    <path
       id="path47"
       d="M 0,0 -34.48,20.611 -71.885,0 -109.037,20.611 -144.958,0 -71.885,-42.368 Z"
       style="fill:#f5a80c;fill-opacity:1;fill-rule:nonzero;stroke:none"
       transform="matrix(0.35277776,0,0,-0.35277776,134.67513,142.35)"
       clip-path="url(#clipPath48)" />
    <path
       id="path49"
       d="M 0,0 -34.894,-20.1 -72.332,0.49 v 41.986 z"
       style="fill:#ed800b;fill-opacity:1;fill-rule:nonzero;stroke:none"
       transform="matrix(0.35277776,0,0,-0.35277776,134.83272,112.5402)"
       clip-path="url(#clipPath50)" />
    <path
       id="path51"
       d="M 0,0 73.243,41.986 V 0 L 36.091,-20.59 V -64.379 L 0.17,-84.99 Z"
       style="fill:#fdc806;fill-opacity:1;fill-rule:nonzero;stroke:none"
       transform="matrix(0.35277776,0,0,-0.35277776,83.477176,112.36731)"
       clip-path="url(#clipPath52)" />
  </g>
</svg>
